#!OML:ASF E:\emotionWalksFemale\Project 1\Capture day 1\Session 1\Female1.ASF
:FULLY-SPECIFIED
:DEGREES
2497
root 11.1459 15.498 -29.213 -350.759 -12.3188 -3.7547
lowerback 17.4534 -0.945375 -6.11688
upperback -1.20606 -2.53387 0.13508
thorax -10.9024 -0.83101 4.29339
lowerneck -8.16337 3.09483 -0.051717
upperneck 4.25018 3.91275 3.63793
head 2.70579 2.0755 1.37284
rclavicle -2.26615e-014 1.90833e-014
rhumerus -46.55 19.3645 -97.9484
rradius 48.9408
rwrist -12.3337
rhand 11.1167 -55.0046
rfingers 7.12502
rthumb -143.815 818.724
lclavicle -2.26615e-014 1.90833e-014
lhumerus -21.6778 4.98137 81.1164
lradius 34.8216
lwrist -14.3808
lhand -3.93451 -33.7435
lfingers 7.12502
lthumb 21.8169 -4.95326
rfemur -30.5136 6.55195 27.5586
rtibia 28.4744
rfoot -8.00086 -17.7633
rtoes -13.4966
lfemur -13.3588 -7.42942 -22.7896
ltibia 35.3882
lfoot -22.5247 9.93179
ltoes -6.36379
2498
root 11.1278 15.5047 -29.1409 -350.878 -12.0418 -3.6206
lowerback 17.5076 -1.0033 -5.95564
upperback -1.25202 -2.57943 0.161071
thorax -10.985 -0.856574 4.24573
lowerneck -8.69459 3.05401 -0.0267613
upperneck 4.56364 3.85007 3.48919
head 2.91724 2.04612 1.33783
rclavicle -4.27387e-014 -2.70347e-014
rhumerus -46.4509 19.3332 -97.8403
rradius 48.8433
rwrist -12.3102
rhand 11.1246 -55.4688
rfingers 7.12502
rthumb -143.808 818.262
lclavicle -4.27387e-014 -2.70347e-014
lhumerus -21.7572 5.04801 81.2196
lradius 34.7579
lwrist -14.3469
lhand -3.51614 -33.7309
lfingers 7.12502
lthumb 22.2185 -4.98795
rfemur -30.1003 6.40796 27.4896
rtibia 28.6573
rfoot -7.93461 -17.6425
rtoes -11.6949
lfemur -12.9761 -7.47315 -22.9441
ltibia 35.3659
lfoot -21.9992 9.92753
ltoes -7.4757
2499
root 11.1017 15.511 -29.0684 -350.938 -11.9493 -3.40622
lowerback 17.09 -1.00026 -5.99974
upperback -1.37528 -2.56501 0.123686
thorax -10.8851 -0.85076 4.2109
lowerneck -8.0729 2.99587 0.0913602
upperneck 4.41171 3.78222 3.30413
head 2.75419 2.00187 1.23458
rclavicle 3.57812e-015 -7.95139e-016
rhumerus -46.6669 19.1471 -97.8827
rradius 48.7412
rwrist -12.308
rhand 11.227 -55.7882
rfingers 7.12502
rthumb -143.711 817.967
lclavicle 3.57812e-015 -7.95139e-016
lhumerus -22.5963 4.33739 81.1298
lradius 35.2617
lwrist -13.7821
lhand -3.88716 -33.5662
lfingers 7.12502
lthumb 21.8623 -4.78125
rfemur -29.7577 6.42596 27.3321
rtibia 28.7844
rfoot -8.289 -17.4965
rtoes -9.6868
lfemur -12.6782 -7.24591 -23.1731
ltibia 35.3527
lfoot -21.4392 10.0304
ltoes -9.4523
2500
root 11.0755 15.5216 -28.994 -350.974 -11.8309 -3.1651
lowerback 16.7468 -1.08767 -6.07621
upperback -1.47138 -2.67248 0.164586
thorax -10.7779 -0.898586 4.31347
lowerneck -8.02216 2.99794 -0.106627
upperneck 4.54496 3.80697 3.25298
head 2.78659 2.00943 1.25508
rclavicle 1.82882e-014 1.98785e-014
rhumerus -46.7921 19.5643 -98.0461
rradius 48.4705
rwrist -12.0153
rhand 11.0404 -55.8494
rfingers 7.12502
rthumb -143.888 817.862
lclavicle 1.82882e-014 1.98785e-014
lhumerus -23.2431 4.25689 81.086
lradius 35.5659
lwrist -13.613
lhand -4.51075 -33.7197
lfingers 7.12502
lthumb 21.2634 -4.86611
rfemur -29.4058 6.43508 27.1422
rtibia 28.8166
rfoot -8.89699 -17.521
rtoes -7.81357
lfemur -12.4151 -7.11111 -23.3924
ltibia 35.361
lfoot -20.9549 9.82862
ltoes -8.93716
2501
root 11.0494 15.5322 -28.9154 -351.062 -11.6787 -3.04452
lowerback 16.4957 -1.10335 -5.93862
upperback -1.4545 -2.65386 0.103169
thorax -10.6243 -0.907304 4.15158
lowerneck -8.53558 2.94115 0.17003
upperneck 4.86561 3.70089 3.03719
head 3.00411 1.95972 1.15079
rclavicle -3.69739e-014 -2.46493e-014
rhumerus -46.7793 19.7483 -98.3795
rradius 47.9644
rwrist -10.9012
rhand 9.98697 -54.4778
rfingers 7.12502
rthumb -144.886 818.993
lclavicle -3.69739e-014 -2.46493e-014
lhumerus -23.2946 4.02704 80.974
lradius 35.5612
lwrist -13.5243
lhand -4.18972 -33.5108
lfingers 7.12502
lthumb 21.5718 -4.69221
rfemur -28.9088 6.44509 27.0882
rtibia 28.7364
rfoot -9.19269 -17.5789
rtoes -6.83817
lfemur -12.0676 -7.07475 -23.4804
ltibia 35.3967
lfoot -20.5061 9.47507
ltoes -6.62944
2502
root 11.0216 15.538 -28.8359 -351.163 -11.5543 -2.95397
lowerback 16.1939 -1.09411 -5.85465
upperback -1.51033 -2.6087 0.0824049
thorax -10.522 -0.895087 4.05851
lowerneck -8.52997 2.89463 0.453478
upperneck 5.03344 3.61926 2.78754
head 3.07127 1.91636 1.01896
rclavicle -3.12092e-014 -1.11319e-014
rhumerus -46.7901 19.5621 -98.4317
rradius 47.7897
rwrist -10.8432
rhand 9.58118 -53.868
rfingers 7.12502
rthumb -145.271 819.513
lclavicle -3.12092e-014 -1.11319e-014
lhumerus -23.8472 3.44238 80.7892
lradius 35.9083
lwrist -12.926
lhand -3.91048 -33.2519
lfingers 7.12502
lthumb 21.8399 -4.46433
rfemur -28.3546 6.59533 27.0456
rtibia 28.5348
rfoot -8.89963 -17.7113
rtoes -7.33027
lfemur -11.7394 -7.00333 -23.5433
ltibia 35.4904
lfoot -20.0843 9.17218
ltoes -4.41403
